<?xml version="1.0" standalone="no"?>
<!DOCTYPE svg PUBLIC "-//W3C//DTD SVG 20010904//EN"
 "http://www.w3.org/TR/2001/REC-SVG-20010904/DTD/svg10.dtd">
<svg version="1.0" xmlns="http://www.w3.org/2000/svg"
 width="465.000000pt" height="465.000000pt" viewBox="0 0 465.000000 465.000000"
 preserveAspectRatio="xMidYMid meet">
<metadata>
Created by potrace 1.14, written by Peter Selinger 2001-2017
</metadata>
<g transform="translate(0.000000,465.000000) scale(0.100000,-0.100000)"
fill="#000000" stroke="none">
<path d="M374 2623 c4 -7 3 -13 -2 -13 -6 0 -9 -25 -7 -55 1 -30 -2 -55 -7
-55 -5 0 -6 -5 -2 -11 11 -18 13 -69 3 -75 -5 -3 -6 -11 -2 -17 11 -19 11 -97
0 -90 -6 4 -7 1 -2 -8 12 -18 14 -119 3 -119 -5 0 -6 -6 -2 -12 12 -19 11 -92
-1 -100 -9 -7 17 -13 39 -9 4 1 14 -3 20 -9 7 -5 16 -7 20 -3 11 11 36 12 36
1 0 -7 5 -7 13 1 10 8 17 7 27 -2 10 -10 11 -9 5 2 -6 11 -4 13 8 8 15 -6 17
4 17 84 0 58 4 88 10 84 6 -3 10 0 10 7 0 9 3 9 10 -2 9 -13 10 -13 10 0 0 13
2 13 9 1 8 -12 12 -12 25 -2 9 8 16 9 16 4 0 -5 7 -10 15 -10 8 0 15 5 15 11
0 7 3 7 8 1 8 -12 93 -15 86 -3 -3 4 -1 8 5 8 5 0 11 -5 13 -11 3 -9 9 -9 25
0 12 6 24 7 27 2 6 -9 48 -7 65 4 6 3 11 1 11 -5 0 -7 5 -8 13 -3 6 4 14 8 17
9 58 11 120 56 120 88 0 7 3 16 8 20 10 10 10 156 0 156 -4 0 -8 6 -8 14 0 25
-42 68 -84 85 -36 15 -76 17 -306 16 -172 -1 -270 3 -279 9 -11 8 -13 8 -7 -1z
m254 -139 c17 0 32 3 32 8 0 5 6 6 13 1 16 -10 48 -11 68 -2 8 4 21 4 29 -1 8
-5 22 -4 32 1 10 5 18 6 18 2 0 -4 12 -9 26 -10 34 -1 54 -22 59 -61 4 -37
-24 -71 -59 -73 -71 -4 -92 -3 -103 4 -6 4 -13 4 -16 0 -3 -5 -27 -7 -54 -5
-57 3 -60 3 -98 0 -24 -2 -30 1 -31 17 -1 11 -3 25 -4 30 -1 6 -2 29 -1 52 1
36 4 41 21 38 11 -2 20 2 20 8 0 8 3 8 8 2 4 -6 22 -10 40 -11z"/>
<path d="M1273 2598 c-21 -10 -48 -29 -60 -43 -27 -28 -66 -125 -51 -125 7 0
6 -5 -1 -13 -6 -8 -8 -17 -4 -21 9 -9 11 -46 3 -46 -4 0 -6 -12 -4 -27 3 -16
6 -50 7 -78 2 -27 10 -61 18 -75 18 -32 80 -90 90 -84 4 2 9 0 11 -5 5 -14
210 -32 223 -20 2 3 29 2 60 -1 31 -3 57 -4 60 -2 2 2 30 6 62 8 74 4 83 6 83
15 0 4 10 11 22 15 40 12 103 110 87 135 -4 7 -4 18 0 24 7 9 8 206 1 213 -1
1 -3 5 -5 10 -15 53 -71 113 -120 127 -17 5 -123 10 -237 10 -183 1 -211 -1
-245 -17z m394 -134 c8 -8 18 -14 22 -14 5 0 7 -11 6 -25 -2 -14 1 -25 6 -25
5 0 5 -10 0 -23 -5 -13 -5 -30 -1 -37 5 -8 6 -19 2 -25 -10 -16 -11 -34 -1
-40 10 -7 -8 -43 -31 -62 -8 -7 -23 -11 -32 -9 -10 2 -20 1 -22 -3 -5 -8 -82
-5 -96 4 -6 3 -10 0 -10 -7 0 -9 -3 -9 -10 2 -5 8 -10 10 -10 4 0 -21 -103 -4
-126 21 -18 20 -20 33 -18 120 2 103 6 114 54 130 45 15 249 7 267 -11z"/>
<path d="M2120 2610 c0 -3 -9 -6 -21 -7 -26 -2 -109 -55 -103 -65 3 -4 0 -8
-5 -8 -6 0 -10 -3 -9 -7 0 -5 -2 -16 -6 -25 -8 -17 -5 -87 5 -117 6 -20 50
-66 60 -64 5 2 9 -2 9 -7 0 -5 8 -10 18 -10 10 0 22 -3 26 -7 4 -4 92 -8 195
-8 196 0 223 -6 216 -43 -2 -9 -4 -21 -4 -25 -1 -5 -5 -5 -11 -2 -5 3 -10 2
-10 -2 0 -5 -73 -8 -161 -7 -132 0 -164 3 -173 16 -14 19 -160 26 -171 8 -9
-15 11 -78 33 -105 39 -47 61 -50 311 -49 130 1 243 3 251 6 61 19 97 59 103
115 2 16 7 34 11 41 4 7 2 12 -3 12 -6 0 -10 3 -10 8 4 25 -4 50 -24 73 -25
29 -81 61 -91 52 -3 -4 -6 -1 -6 5 0 8 -7 9 -26 2 -14 -6 -23 -6 -19 -1 7 13
-98 9 -107 -4 -5 -6 -8 -6 -8 1 0 7 -34 10 -105 9 -108 -2 -146 7 -151 37 -3
23 25 60 42 54 8 -3 14 0 14 6 0 9 3 9 11 1 8 -8 20 -8 35 -3 14 6 26 6 29 0
4 -7 13 -6 26 0 14 8 19 7 19 -1 0 -8 4 -8 15 1 12 10 15 10 15 0 0 -10 3 -10
15 0 8 7 15 8 15 3 0 -11 29 -11 48 1 7 4 12 2 12 -5 0 -9 3 -9 14 0 10 8 16
9 21 1 3 -5 15 -10 26 -10 10 0 18 -3 18 -7 -4 -23 3 -33 24 -33 12 0 31 0 42
0 72 -1 88 5 91 33 1 15 -2 27 -7 27 -5 0 -9 9 -9 21 0 24 -57 79 -82 79 -10
0 -18 3 -18 8 0 4 -97 7 -215 7 -118 0 -215 -2 -215 -5z"/>
<path d="M2881 2585 c-14 -8 -38 -28 -54 -45 -24 -26 -30 -42 -36 -105 -4 -49
-3 -76 4 -79 5 -2 4 -5 -4 -5 -11 -1 -11 -4 -1 -16 10 -12 10 -15 0 -15 -9 0
-9 -4 1 -17 10 -11 10 -14 2 -9 -7 4 -13 2 -13 -3 0 -6 5 -11 11 -11 8 0 8 -4
0 -14 -9 -11 -9 -15 1 -19 11 -4 11 -6 0 -6 -10 -1 -10 -6 -2 -21 6 -11 8 -20
5 -20 -3 0 1 -10 10 -23 8 -13 14 -25 13 -28 -2 -2 -1 -3 1 -2 2 1 13 -8 25
-21 20 -21 41 -33 76 -43 32 -10 430 -8 430 1 0 5 3 7 6 3 11 -10 61 21 83 51
11 16 18 32 14 36 -3 3 -1 6 5 6 14 0 8 68 -7 83 -8 8 -11 7 -11 -3 0 -13 -2
-13 -10 0 -7 11 -10 11 -10 2 0 -9 -5 -10 -19 -2 -14 7 -21 6 -24 -3 -3 -6 -6
-7 -6 -1 -1 6 -14 9 -31 6 -21 -3 -30 -10 -30 -24 0 -33 -47 -43 -189 -41 -72
1 -140 7 -151 13 -18 10 -20 21 -20 119 0 91 3 110 18 124 21 20 118 32 127
17 4 -7 11 -8 18 -2 17 14 170 8 175 -7 2 -6 8 -9 13 -5 5 3 9 -4 9 -15 0 -12
5 -21 10 -22 47 -3 142 -1 146 4 14 13 -9 80 -38 113 -54 61 -62 63 -304 62
-165 0 -225 -3 -243 -13z"/>
<path d="M3663 2573 c-62 -40 -73 -76 -74 -236 0 -120 2 -137 23 -176 41 -77
67 -84 321 -86 119 0 217 2 217 5 0 3 10 6 22 7 11 1 25 8 29 15 5 7 9 9 9 5
0 -18 52 54 57 80 8 36 8 194 0 257 -7 56 -36 103 -82 133 -31 20 -46 22 -256
22 l-224 1 -42 -27z m226 -108 c9 -5 12 -4 7 3 -8 14 86 11 96 -3 5 -7 8 -6 8
1 0 10 29 11 74 1 30 -6 40 -37 41 -127 1 -103 -8 -135 -38 -138 -12 -1 -31
-4 -42 -6 -11 -2 -26 1 -32 7 -8 6 -13 6 -13 0 0 -10 -148 -9 -158 1 -3 3 -11
1 -19 -5 -10 -9 -13 -8 -13 0 0 7 -5 9 -10 6 -14 -8 -36 16 -38 40 -9 136 6
232 34 221 8 -3 15 -2 18 2 6 10 68 8 85 -3z"/>
</g>
</svg>
